%TF.GenerationSoftware,KiCad,Pcbnew,(7.0.0-0)*%
%TF.CreationDate,2023-02-27T23:59:31-08:00*%
%TF.ProjectId,DEMI_Buffer,44454d49-5f42-4756-9666-65722e6b6963,rev?*%
%TF.SameCoordinates,Original*%
%TF.FileFunction,Legend,Bot*%
%TF.FilePolarity,Positive*%
%FSLAX46Y46*%
G04 Gerber Fmt 4.6, Leading zero omitted, Abs format (unit mm)*
G04 Created by KiCad (PCBNEW (7.0.0-0)) date 2023-02-27 23:59:31*
%MOMM*%
%LPD*%
G01*
G04 APERTURE LIST*
%ADD10C,0.150000*%
%ADD11C,0.254000*%
%ADD12C,0.127000*%
%ADD13C,0.300000*%
%ADD14C,0.120000*%
G04 APERTURE END LIST*
D10*
X145288000Y-103124000D02*
X140258800Y-103124000D01*
X148082000Y-105156000D02*
X152044400Y-105156000D01*
X135991600Y-106426000D02*
X134874000Y-106426000D01*
X134874000Y-106426000D02*
X135178800Y-106680000D01*
X145288000Y-103124000D02*
X148082000Y-105156000D01*
X134874000Y-106426000D02*
X135178800Y-106172000D01*
X135178800Y-106172000D02*
X134874000Y-106426000D01*
D11*
%TO.C,J1*%
X150326705Y-87252258D02*
X150326705Y-88252343D01*
X150326705Y-88252343D02*
X150393378Y-88452359D01*
X150393378Y-88452359D02*
X150526722Y-88585704D01*
X150526722Y-88585704D02*
X150726739Y-88652376D01*
X150726739Y-88652376D02*
X150860084Y-88652376D01*
X148926587Y-88652376D02*
X149726654Y-88652376D01*
X149326621Y-88652376D02*
X149326621Y-87252258D01*
X149326621Y-87252258D02*
X149459965Y-87452275D01*
X149459965Y-87452275D02*
X149593310Y-87585620D01*
X149593310Y-87585620D02*
X149726654Y-87652292D01*
D10*
%TO.C,R4*%
X152005380Y-106132333D02*
X151529190Y-105799000D01*
X152005380Y-105560905D02*
X151005380Y-105560905D01*
X151005380Y-105560905D02*
X151005380Y-105941857D01*
X151005380Y-105941857D02*
X151053000Y-106037095D01*
X151053000Y-106037095D02*
X151100619Y-106084714D01*
X151100619Y-106084714D02*
X151195857Y-106132333D01*
X151195857Y-106132333D02*
X151338714Y-106132333D01*
X151338714Y-106132333D02*
X151433952Y-106084714D01*
X151433952Y-106084714D02*
X151481571Y-106037095D01*
X151481571Y-106037095D02*
X151529190Y-105941857D01*
X151529190Y-105941857D02*
X151529190Y-105560905D01*
X151338714Y-106989476D02*
X152005380Y-106989476D01*
X150957761Y-106751381D02*
X151672047Y-106513286D01*
X151672047Y-106513286D02*
X151672047Y-107132333D01*
%TO.C,R1*%
X151878380Y-103592333D02*
X151402190Y-103259000D01*
X151878380Y-103020905D02*
X150878380Y-103020905D01*
X150878380Y-103020905D02*
X150878380Y-103401857D01*
X150878380Y-103401857D02*
X150926000Y-103497095D01*
X150926000Y-103497095D02*
X150973619Y-103544714D01*
X150973619Y-103544714D02*
X151068857Y-103592333D01*
X151068857Y-103592333D02*
X151211714Y-103592333D01*
X151211714Y-103592333D02*
X151306952Y-103544714D01*
X151306952Y-103544714D02*
X151354571Y-103497095D01*
X151354571Y-103497095D02*
X151402190Y-103401857D01*
X151402190Y-103401857D02*
X151402190Y-103020905D01*
X151878380Y-104544714D02*
X151878380Y-103973286D01*
X151878380Y-104259000D02*
X150878380Y-104259000D01*
X150878380Y-104259000D02*
X151021238Y-104163762D01*
X151021238Y-104163762D02*
X151116476Y-104068524D01*
X151116476Y-104068524D02*
X151164095Y-103973286D01*
%TO.C,R2*%
X150227380Y-103592333D02*
X149751190Y-103259000D01*
X150227380Y-103020905D02*
X149227380Y-103020905D01*
X149227380Y-103020905D02*
X149227380Y-103401857D01*
X149227380Y-103401857D02*
X149275000Y-103497095D01*
X149275000Y-103497095D02*
X149322619Y-103544714D01*
X149322619Y-103544714D02*
X149417857Y-103592333D01*
X149417857Y-103592333D02*
X149560714Y-103592333D01*
X149560714Y-103592333D02*
X149655952Y-103544714D01*
X149655952Y-103544714D02*
X149703571Y-103497095D01*
X149703571Y-103497095D02*
X149751190Y-103401857D01*
X149751190Y-103401857D02*
X149751190Y-103020905D01*
X149322619Y-103973286D02*
X149275000Y-104020905D01*
X149275000Y-104020905D02*
X149227380Y-104116143D01*
X149227380Y-104116143D02*
X149227380Y-104354238D01*
X149227380Y-104354238D02*
X149275000Y-104449476D01*
X149275000Y-104449476D02*
X149322619Y-104497095D01*
X149322619Y-104497095D02*
X149417857Y-104544714D01*
X149417857Y-104544714D02*
X149513095Y-104544714D01*
X149513095Y-104544714D02*
X149655952Y-104497095D01*
X149655952Y-104497095D02*
X150227380Y-103925667D01*
X150227380Y-103925667D02*
X150227380Y-104544714D01*
%TO.C,U2*%
X144017904Y-103634380D02*
X144017904Y-104443904D01*
X144017904Y-104443904D02*
X143970285Y-104539142D01*
X143970285Y-104539142D02*
X143922666Y-104586761D01*
X143922666Y-104586761D02*
X143827428Y-104634380D01*
X143827428Y-104634380D02*
X143636952Y-104634380D01*
X143636952Y-104634380D02*
X143541714Y-104586761D01*
X143541714Y-104586761D02*
X143494095Y-104539142D01*
X143494095Y-104539142D02*
X143446476Y-104443904D01*
X143446476Y-104443904D02*
X143446476Y-103634380D01*
X143017904Y-103729619D02*
X142970285Y-103682000D01*
X142970285Y-103682000D02*
X142875047Y-103634380D01*
X142875047Y-103634380D02*
X142636952Y-103634380D01*
X142636952Y-103634380D02*
X142541714Y-103682000D01*
X142541714Y-103682000D02*
X142494095Y-103729619D01*
X142494095Y-103729619D02*
X142446476Y-103824857D01*
X142446476Y-103824857D02*
X142446476Y-103920095D01*
X142446476Y-103920095D02*
X142494095Y-104062952D01*
X142494095Y-104062952D02*
X143065523Y-104634380D01*
X143065523Y-104634380D02*
X142446476Y-104634380D01*
%TO.C,D1*%
X149211380Y-105560905D02*
X148211380Y-105560905D01*
X148211380Y-105560905D02*
X148211380Y-105799000D01*
X148211380Y-105799000D02*
X148259000Y-105941857D01*
X148259000Y-105941857D02*
X148354238Y-106037095D01*
X148354238Y-106037095D02*
X148449476Y-106084714D01*
X148449476Y-106084714D02*
X148639952Y-106132333D01*
X148639952Y-106132333D02*
X148782809Y-106132333D01*
X148782809Y-106132333D02*
X148973285Y-106084714D01*
X148973285Y-106084714D02*
X149068523Y-106037095D01*
X149068523Y-106037095D02*
X149163761Y-105941857D01*
X149163761Y-105941857D02*
X149211380Y-105799000D01*
X149211380Y-105799000D02*
X149211380Y-105560905D01*
X149211380Y-107084714D02*
X149211380Y-106513286D01*
X149211380Y-106799000D02*
X148211380Y-106799000D01*
X148211380Y-106799000D02*
X148354238Y-106703762D01*
X148354238Y-106703762D02*
X148449476Y-106608524D01*
X148449476Y-106608524D02*
X148497095Y-106513286D01*
%TO.C,Q1*%
X138398238Y-99063119D02*
X138493476Y-99015500D01*
X138493476Y-99015500D02*
X138588714Y-98920261D01*
X138588714Y-98920261D02*
X138731571Y-98777404D01*
X138731571Y-98777404D02*
X138826809Y-98729785D01*
X138826809Y-98729785D02*
X138922047Y-98729785D01*
X138874428Y-98967880D02*
X138969666Y-98920261D01*
X138969666Y-98920261D02*
X139064904Y-98825023D01*
X139064904Y-98825023D02*
X139112523Y-98634547D01*
X139112523Y-98634547D02*
X139112523Y-98301214D01*
X139112523Y-98301214D02*
X139064904Y-98110738D01*
X139064904Y-98110738D02*
X138969666Y-98015500D01*
X138969666Y-98015500D02*
X138874428Y-97967880D01*
X138874428Y-97967880D02*
X138683952Y-97967880D01*
X138683952Y-97967880D02*
X138588714Y-98015500D01*
X138588714Y-98015500D02*
X138493476Y-98110738D01*
X138493476Y-98110738D02*
X138445857Y-98301214D01*
X138445857Y-98301214D02*
X138445857Y-98634547D01*
X138445857Y-98634547D02*
X138493476Y-98825023D01*
X138493476Y-98825023D02*
X138588714Y-98920261D01*
X138588714Y-98920261D02*
X138683952Y-98967880D01*
X138683952Y-98967880D02*
X138874428Y-98967880D01*
X137493476Y-98967880D02*
X138064904Y-98967880D01*
X137779190Y-98967880D02*
X137779190Y-97967880D01*
X137779190Y-97967880D02*
X137874428Y-98110738D01*
X137874428Y-98110738D02*
X137969666Y-98205976D01*
X137969666Y-98205976D02*
X138064904Y-98253595D01*
%TO.C,R3*%
X150633780Y-106132333D02*
X150157590Y-105799000D01*
X150633780Y-105560905D02*
X149633780Y-105560905D01*
X149633780Y-105560905D02*
X149633780Y-105941857D01*
X149633780Y-105941857D02*
X149681400Y-106037095D01*
X149681400Y-106037095D02*
X149729019Y-106084714D01*
X149729019Y-106084714D02*
X149824257Y-106132333D01*
X149824257Y-106132333D02*
X149967114Y-106132333D01*
X149967114Y-106132333D02*
X150062352Y-106084714D01*
X150062352Y-106084714D02*
X150109971Y-106037095D01*
X150109971Y-106037095D02*
X150157590Y-105941857D01*
X150157590Y-105941857D02*
X150157590Y-105560905D01*
X149633780Y-106465667D02*
X149633780Y-107084714D01*
X149633780Y-107084714D02*
X150014733Y-106751381D01*
X150014733Y-106751381D02*
X150014733Y-106894238D01*
X150014733Y-106894238D02*
X150062352Y-106989476D01*
X150062352Y-106989476D02*
X150109971Y-107037095D01*
X150109971Y-107037095D02*
X150205209Y-107084714D01*
X150205209Y-107084714D02*
X150443304Y-107084714D01*
X150443304Y-107084714D02*
X150538542Y-107037095D01*
X150538542Y-107037095D02*
X150586161Y-106989476D01*
X150586161Y-106989476D02*
X150633780Y-106894238D01*
X150633780Y-106894238D02*
X150633780Y-106608524D01*
X150633780Y-106608524D02*
X150586161Y-106513286D01*
X150586161Y-106513286D02*
X150538542Y-106465667D01*
%TO.C,U3*%
X149656704Y-97970180D02*
X149656704Y-98779704D01*
X149656704Y-98779704D02*
X149609085Y-98874942D01*
X149609085Y-98874942D02*
X149561466Y-98922561D01*
X149561466Y-98922561D02*
X149466228Y-98970180D01*
X149466228Y-98970180D02*
X149275752Y-98970180D01*
X149275752Y-98970180D02*
X149180514Y-98922561D01*
X149180514Y-98922561D02*
X149132895Y-98874942D01*
X149132895Y-98874942D02*
X149085276Y-98779704D01*
X149085276Y-98779704D02*
X149085276Y-97970180D01*
X148704323Y-97970180D02*
X148085276Y-97970180D01*
X148085276Y-97970180D02*
X148418609Y-98351133D01*
X148418609Y-98351133D02*
X148275752Y-98351133D01*
X148275752Y-98351133D02*
X148180514Y-98398752D01*
X148180514Y-98398752D02*
X148132895Y-98446371D01*
X148132895Y-98446371D02*
X148085276Y-98541609D01*
X148085276Y-98541609D02*
X148085276Y-98779704D01*
X148085276Y-98779704D02*
X148132895Y-98874942D01*
X148132895Y-98874942D02*
X148180514Y-98922561D01*
X148180514Y-98922561D02*
X148275752Y-98970180D01*
X148275752Y-98970180D02*
X148561466Y-98970180D01*
X148561466Y-98970180D02*
X148656704Y-98922561D01*
X148656704Y-98922561D02*
X148704323Y-98874942D01*
%TO.C,C2*%
X143401142Y-108926333D02*
X143448761Y-108878714D01*
X143448761Y-108878714D02*
X143496380Y-108735857D01*
X143496380Y-108735857D02*
X143496380Y-108640619D01*
X143496380Y-108640619D02*
X143448761Y-108497762D01*
X143448761Y-108497762D02*
X143353523Y-108402524D01*
X143353523Y-108402524D02*
X143258285Y-108354905D01*
X143258285Y-108354905D02*
X143067809Y-108307286D01*
X143067809Y-108307286D02*
X142924952Y-108307286D01*
X142924952Y-108307286D02*
X142734476Y-108354905D01*
X142734476Y-108354905D02*
X142639238Y-108402524D01*
X142639238Y-108402524D02*
X142544000Y-108497762D01*
X142544000Y-108497762D02*
X142496380Y-108640619D01*
X142496380Y-108640619D02*
X142496380Y-108735857D01*
X142496380Y-108735857D02*
X142544000Y-108878714D01*
X142544000Y-108878714D02*
X142591619Y-108926333D01*
X142591619Y-109307286D02*
X142544000Y-109354905D01*
X142544000Y-109354905D02*
X142496380Y-109450143D01*
X142496380Y-109450143D02*
X142496380Y-109688238D01*
X142496380Y-109688238D02*
X142544000Y-109783476D01*
X142544000Y-109783476D02*
X142591619Y-109831095D01*
X142591619Y-109831095D02*
X142686857Y-109878714D01*
X142686857Y-109878714D02*
X142782095Y-109878714D01*
X142782095Y-109878714D02*
X142924952Y-109831095D01*
X142924952Y-109831095D02*
X143496380Y-109259667D01*
X143496380Y-109259667D02*
X143496380Y-109878714D01*
%TO.C,R5*%
X146036380Y-108926333D02*
X145560190Y-108593000D01*
X146036380Y-108354905D02*
X145036380Y-108354905D01*
X145036380Y-108354905D02*
X145036380Y-108735857D01*
X145036380Y-108735857D02*
X145084000Y-108831095D01*
X145084000Y-108831095D02*
X145131619Y-108878714D01*
X145131619Y-108878714D02*
X145226857Y-108926333D01*
X145226857Y-108926333D02*
X145369714Y-108926333D01*
X145369714Y-108926333D02*
X145464952Y-108878714D01*
X145464952Y-108878714D02*
X145512571Y-108831095D01*
X145512571Y-108831095D02*
X145560190Y-108735857D01*
X145560190Y-108735857D02*
X145560190Y-108354905D01*
X145036380Y-109831095D02*
X145036380Y-109354905D01*
X145036380Y-109354905D02*
X145512571Y-109307286D01*
X145512571Y-109307286D02*
X145464952Y-109354905D01*
X145464952Y-109354905D02*
X145417333Y-109450143D01*
X145417333Y-109450143D02*
X145417333Y-109688238D01*
X145417333Y-109688238D02*
X145464952Y-109783476D01*
X145464952Y-109783476D02*
X145512571Y-109831095D01*
X145512571Y-109831095D02*
X145607809Y-109878714D01*
X145607809Y-109878714D02*
X145845904Y-109878714D01*
X145845904Y-109878714D02*
X145941142Y-109831095D01*
X145941142Y-109831095D02*
X145988761Y-109783476D01*
X145988761Y-109783476D02*
X146036380Y-109688238D01*
X146036380Y-109688238D02*
X146036380Y-109450143D01*
X146036380Y-109450143D02*
X145988761Y-109354905D01*
X145988761Y-109354905D02*
X145941142Y-109307286D01*
D11*
%TO.C,J2*%
X127487333Y-103384466D02*
X127487333Y-104184466D01*
X127487333Y-104184466D02*
X127540666Y-104344466D01*
X127540666Y-104344466D02*
X127647333Y-104451133D01*
X127647333Y-104451133D02*
X127807333Y-104504466D01*
X127807333Y-104504466D02*
X127914000Y-104504466D01*
X127007333Y-103491133D02*
X126954000Y-103437800D01*
X126954000Y-103437800D02*
X126847333Y-103384466D01*
X126847333Y-103384466D02*
X126580667Y-103384466D01*
X126580667Y-103384466D02*
X126474000Y-103437800D01*
X126474000Y-103437800D02*
X126420667Y-103491133D01*
X126420667Y-103491133D02*
X126367333Y-103597800D01*
X126367333Y-103597800D02*
X126367333Y-103704466D01*
X126367333Y-103704466D02*
X126420667Y-103864466D01*
X126420667Y-103864466D02*
X127060667Y-104504466D01*
X127060667Y-104504466D02*
X126367333Y-104504466D01*
D10*
%TO.C,C1*%
X147592142Y-108926333D02*
X147639761Y-108878714D01*
X147639761Y-108878714D02*
X147687380Y-108735857D01*
X147687380Y-108735857D02*
X147687380Y-108640619D01*
X147687380Y-108640619D02*
X147639761Y-108497762D01*
X147639761Y-108497762D02*
X147544523Y-108402524D01*
X147544523Y-108402524D02*
X147449285Y-108354905D01*
X147449285Y-108354905D02*
X147258809Y-108307286D01*
X147258809Y-108307286D02*
X147115952Y-108307286D01*
X147115952Y-108307286D02*
X146925476Y-108354905D01*
X146925476Y-108354905D02*
X146830238Y-108402524D01*
X146830238Y-108402524D02*
X146735000Y-108497762D01*
X146735000Y-108497762D02*
X146687380Y-108640619D01*
X146687380Y-108640619D02*
X146687380Y-108735857D01*
X146687380Y-108735857D02*
X146735000Y-108878714D01*
X146735000Y-108878714D02*
X146782619Y-108926333D01*
X147687380Y-109878714D02*
X147687380Y-109307286D01*
X147687380Y-109593000D02*
X146687380Y-109593000D01*
X146687380Y-109593000D02*
X146830238Y-109497762D01*
X146830238Y-109497762D02*
X146925476Y-109402524D01*
X146925476Y-109402524D02*
X146973095Y-109307286D01*
D12*
%TO.C,J1*%
X147280000Y-84710000D02*
X147280000Y-86710000D01*
X142280000Y-84710000D02*
X147280000Y-84710000D01*
X147680000Y-86710000D02*
X147680000Y-91060000D01*
X147280000Y-86710000D02*
X147680000Y-86710000D01*
X147280000Y-86710000D02*
X141880000Y-86710000D01*
X142280000Y-86710000D02*
X142280000Y-84710000D01*
X141880000Y-86710000D02*
X141880000Y-87660000D01*
X141880000Y-89910000D02*
X141880000Y-90210000D01*
X141880000Y-90210000D02*
X141480000Y-90210000D01*
X141480000Y-90210000D02*
X141480000Y-96510000D01*
X147680000Y-93360000D02*
X147680000Y-98710000D01*
X147680000Y-98710000D02*
X141930000Y-98710000D01*
D13*
X143025000Y-89535000D02*
G75*
G03*
X143025000Y-89535000I-150000J0D01*
G01*
D14*
%TO.C,R4*%
X145175500Y-100981742D02*
X145175500Y-101456258D01*
X144130500Y-100981742D02*
X144130500Y-101456258D01*
%TO.C,R1*%
X150861500Y-101456258D02*
X150861500Y-100981742D01*
X151906500Y-101456258D02*
X151906500Y-100981742D01*
%TO.C,R2*%
X149210500Y-101430858D02*
X149210500Y-100956342D01*
X150255500Y-101430858D02*
X150255500Y-100956342D01*
%TO.C,U2*%
X141692000Y-103635600D02*
X140552000Y-103635600D01*
X140552000Y-108125600D02*
X140552000Y-107895600D01*
X140552000Y-103405600D02*
X140552000Y-103635600D01*
X140552000Y-103405600D02*
X137832000Y-103405600D01*
X137832000Y-108125600D02*
X140552000Y-108125600D01*
X137832000Y-106815600D02*
X137832000Y-108125600D01*
X137832000Y-103405600D02*
X137832000Y-104715600D01*
%TO.C,D1*%
X140247000Y-102863000D02*
X140247000Y-100203000D01*
X141947000Y-102863000D02*
X140247000Y-102863000D01*
X141947000Y-102863000D02*
X141947000Y-100203000D01*
%TO.C,Q1*%
X136677000Y-101219000D02*
X136677000Y-101869000D01*
X136677000Y-101219000D02*
X136677000Y-100569000D01*
X139797000Y-101219000D02*
X139797000Y-102894000D01*
X139797000Y-101219000D02*
X139797000Y-100569000D01*
%TO.C,R3*%
X143524500Y-100981742D02*
X143524500Y-101456258D01*
X142479500Y-100981742D02*
X142479500Y-101456258D01*
%TO.C,U3*%
X148753000Y-101219000D02*
X148753000Y-100419000D01*
X148753000Y-101219000D02*
X148753000Y-102019000D01*
X145633000Y-101219000D02*
X145633000Y-99419000D01*
X145633000Y-101219000D02*
X145633000Y-102019000D01*
%TO.C,C2*%
X142492000Y-106617380D02*
X142492000Y-106336220D01*
X143512000Y-106617380D02*
X143512000Y-106336220D01*
%TO.C,R5*%
X146013700Y-106239542D02*
X146013700Y-106714058D01*
X144968700Y-106239542D02*
X144968700Y-106714058D01*
D12*
%TO.C,J2*%
X135641000Y-103013000D02*
X135641000Y-89253000D01*
X135641000Y-87403000D02*
X135641000Y-78413000D01*
X135641000Y-78413000D02*
X118841000Y-78413000D01*
X118841000Y-103013000D02*
X135641000Y-103013000D01*
X118841000Y-103013000D02*
X118841000Y-89253000D01*
X118841000Y-87403000D02*
X118841000Y-78413000D01*
D13*
X136691000Y-106453000D02*
G75*
G03*
X136691000Y-106453000I-150000J0D01*
G01*
D14*
%TO.C,C1*%
X147626800Y-106336220D02*
X147626800Y-106617380D01*
X146606800Y-106336220D02*
X146606800Y-106617380D01*
%TD*%
M02*
